<svg xmlns="http://www.w3.org/2000/svg" version="1.1" xmlns:xlink="http://www.w3.org/1999/xlink" xmlns:svgjs="http://svgjs.dev/svgjs" width="1000" height="1000" viewBox="0 0 1000 1000"><rect width="1000" height="1000" fill="#0000ed"></rect><g transform="matrix(0.7,0,0,0.7,149.5757683166928,458.78049583351003)"><svg viewBox="0 0 396 47" data-background-color="#0000ed" preserveAspectRatio="xMidYMid meet" height="118" width="1000" xmlns="http://www.w3.org/2000/svg" xmlns:xlink="http://www.w3.org/1999/xlink"><g id="tight-bounds" transform="matrix(1,0,0,1,0.23999399655531306,-0.04580271398270952)"><svg viewBox="0 0 395.52 47.09160485312949" height="47.09160485312949" width="395.52"><g><svg viewBox="0 0 517.759946641098 61.6458" height="47.09160485312949" width="395.52"><g><svg viewBox="0 0 517.759946641098 61.6458" height="61.6458" width="517.759946641098"><g id="textblocktransform"><svg viewBox="0 0 517.759946641098 61.6458" height="61.6458" width="517.759946641098" id="textblock"><g><svg viewBox="0 0 517.759946641098 61.6458" height="61.6458" width="517.759946641098"><g><svg><g></g><g></g></svg></g><g><svg><g><svg></svg></g><g></g></svg></g><g id="text-0"><svg viewBox="0 0 517.759946641098 61.6458" height="61.6458" width="517.759946641098"><g transform="matrix(1,0,0,1,0,11.7729)"><svg width="180.15" viewBox="4.400000095367432 -37.599998474121094 180.13999938964844 38.099998474121094" height="38.1" data-palette-color="#ffffff"><path d="M5.2 0L5.2 0Q4.4 0 4.4-0.85L4.4-0.85 4.4-36.35Q4.4-37.1 5.1-37.1L5.1-37.1 11.65-37.1Q12.1-37.1 12.3-36.98 12.5-36.85 12.6-36.5L12.6-36.5 22.6-10.25Q22.8-9.8 23-9.83 23.2-9.85 23.35-10.3L23.35-10.3 33.2-36.3Q33.5-37.1 34.1-37.1L34.1-37.1 40.9-37.1Q41.55-37.1 41.55-36.35L41.55-36.35 41.55-0.9Q41.55 0 40.65 0L40.65 0 36.35 0Q35.9 0 35.7-0.18 35.5-0.35 35.5-0.8L35.5-0.8 35.5-28.2Q35.5-28.5 35.38-28.45 35.25-28.4 35.2-28.15L35.2-28.15 24.9-0.7Q24.65 0 23.95 0L23.95 0 20.95 0Q20.15 0 19.9-0.65L19.9-0.65 9.8-27.85Q9.65-28.15 9.55-28.15 9.45-28.15 9.45-27.85L9.45-27.85 9.45-0.7Q9.45-0.35 9.3-0.18 9.15 0 8.7 0L8.7 0 5.2 0ZM65.15 0.5L65.15 0.5Q60.1 0.5 56.45-1.73 52.8-3.95 50.85-8.18 48.9-12.4 48.9-18.4L48.9-18.4Q48.9-24.45 50.9-28.75 52.9-33.05 56.55-35.33 60.2-37.6 65.2-37.6L65.2-37.6Q70.15-37.6 73.77-35.33 77.4-33.05 79.37-28.78 81.35-24.5 81.35-18.45L81.35-18.45Q81.35-12.45 79.4-8.22 77.45-4 73.8-1.75 70.15 0.5 65.15 0.5L65.15 0.5ZM65.2-3.95L65.2-3.95Q70.2-3.95 72.62-7.43 75.05-10.9 75.05-18.4L75.05-18.4Q75.05-26 72.57-29.6 70.1-33.2 65.2-33.2L65.2-33.2Q60.2-33.2 57.7-29.58 55.2-25.95 55.2-18.4L55.2-18.4Q55.2-10.95 57.7-7.45 60.2-3.95 65.2-3.95L65.2-3.95ZM113.4-37.1L117.2-37.1Q117.75-37.1 117.75-36.45L117.75-36.45 117.75-0.65Q117.75-0.35 117.55-0.18 117.35 0 117 0L117 0 113.75 0Q113.4 0 113.15-0.08 112.9-0.15 112.65-0.5L112.65-0.5 94.4-26.7Q94.15-27.05 94-27 93.85-26.95 93.85-26.65L93.85-26.65 93.85-0.7Q93.85 0 93.05 0L93.05 0 89.5 0Q88.7 0 88.7-0.7L88.7-0.7 88.7-36.35Q88.7-37.1 89.45-37.1L89.45-37.1 93.35-37.1Q93.75-37.1 93.97-37 94.2-36.9 94.45-36.5L94.45-36.5 111.95-11.15Q112.25-10.75 112.47-10.83 112.7-10.9 112.7-11.25L112.7-11.25 112.7-36.4Q112.7-37.1 113.4-37.1L113.4-37.1ZM124.09-33.2L124.09-36.4Q124.09-36.75 124.27-36.93 124.44-37.1 124.84-37.1L124.84-37.1 152.29-37.1Q152.69-37.1 152.84-36.93 152.99-36.75 152.99-36.4L152.99-36.4 152.99-33.2Q152.99-32.6 152.29-32.6L152.29-32.6 142.39-32.6Q141.84-32.6 141.84-32.15L141.84-32.15 141.84-0.75Q141.84 0 141.19 0L141.19 0 136.49 0Q135.84 0 135.84-0.7L135.84-0.7 135.84-32.05Q135.84-32.6 135.29-32.6L135.29-32.6 124.79-32.6Q124.09-32.6 124.09-33.2L124.09-33.2ZM159.34-36.35L159.34-36.35Q159.34-37.1 160.04-37.1L160.04-37.1 183.34-37.1Q183.94-37.1 183.94-36.45L183.94-36.45 183.89-33.3Q183.89-32.55 183.14-32.55L183.14-32.55 166.14-32.55Q165.39-32.55 165.39-31.9L165.39-31.9 165.39-21.6Q165.39-20.95 166.04-20.95L166.04-20.95 178.24-20.95Q178.89-20.95 178.89-20.35L178.89-20.35 178.89-17Q178.89-16.75 178.77-16.6 178.64-16.45 178.24-16.45L178.24-16.45 165.99-16.45Q165.39-16.45 165.39-15.9L165.39-15.9 165.39-5.1Q165.39-4.55 165.89-4.55L165.89-4.55 183.84-4.55Q184.54-4.55 184.54-3.95L184.54-3.95 184.54-0.65Q184.54-0.35 184.39-0.18 184.24 0 183.84 0L183.84 0 160.19 0Q159.34 0 159.34-0.8L159.34-0.8 159.34-36.35Z" opacity="1" transform="matrix(1,0,0,1,0,0)" fill="#ffffff" class="undefined-p-0"></path></svg></g><g><svg xmlns="http://www.w3.org/2000/svg" xmlns:xlink="http://www.w3.org/1999/xlink" version="1.1" x="194.70420000000001" y="0" viewBox="16.172000885009766 5 67.65800476074219 90.00199890136719" enable-background="new 0 0 100 100" xml:space="preserve" height="61.6458" width="46.34154664109803" class="icon-s-0" data-fill-palette-color="accent" id="s-0"><path d="M75.934 18.779h-4.502c-0.314 5.671-5.016 10.192-10.764 10.192H39.333c-5.749 0-10.448-4.521-10.763-10.192h-4.504c-4.342 0-7.894 3.552-7.894 7.894v60.435c0 4.343 3.551 7.894 7.894 7.894h51.868c4.344 0 7.896-3.551 7.896-7.894V26.673C83.828 22.331 80.275 18.779 75.934 18.779zM26.866 38.271c0.92-0.613 2.161-0.364 2.774 0.555l1.498 2.246 5.133-5.402c0.76-0.8 2.026-0.833 2.827-0.072 0.801 0.761 0.833 2.027 0.072 2.828l-5.838 6.145c-0.625 0.657-1.459 1.021-2.32 1.021-0.087 0-0.175-0.004-0.263-0.012-0.953-0.082-1.817-0.605-2.371-1.437l-2.066-3.099C25.699 40.125 25.947 38.884 26.866 38.271zM39.17 69.861l-5.838 6.143c-0.625 0.657-1.458 1.021-2.319 1.021-0.087 0-0.175-0.004-0.264-0.012-0.954-0.082-1.818-0.607-2.373-1.44l-2.065-3.097c-0.613-0.92-0.365-2.16 0.554-2.773 0.92-0.614 2.161-0.364 2.774 0.555l1.499 2.248 5.132-5.4c0.761-0.799 2.026-0.832 2.828-0.071C39.899 67.795 39.931 69.061 39.17 69.861zM39.171 53.749l-5.838 6.146c-0.627 0.658-1.46 1.022-2.322 1.022-0.088 0-0.177-0.004-0.266-0.013-0.953-0.082-1.816-0.607-2.369-1.439l-2.064-3.094c-0.613-0.919-0.365-2.161 0.554-2.773 0.917-0.615 2.161-0.365 2.773 0.553l1.499 2.246 5.132-5.402c0.76-0.8 2.026-0.833 2.828-0.072C39.899 51.682 39.932 52.947 39.171 53.749zM72.023 76.711H45.207c-1.104 0-2-0.896-2-2s0.896-2 2-2h26.818c1.104 0 2 0.896 2 2S73.129 76.711 72.023 76.711zM72.023 60.604H45.207c-1.104 0-2-0.896-2-2 0-1.104 0.896-2 2-2h26.818c1.104 0 2 0.896 2 2C74.025 59.708 73.129 60.604 72.023 60.604zM72.023 45.276H45.207c-1.104 0-2-0.896-2-2s0.896-2 2-2h26.818c1.104 0 2 0.896 2 2S73.129 45.276 72.023 45.276z" fill="#ff9866" data-fill-palette-color="accent"></path><path d="M39.333 24.472h21.335c3.471 0 6.293-2.824 6.292-6.293 0-3.471-2.821-6.292-6.293-6.292h-4.996c0.006-0.016 0.011-0.029 0.017-0.045l0.061-0.164v-0.93C55.748 7.58 53.17 5 50 5s-5.749 2.58-5.748 5.748c0 0 0.071 1.123 0.077 1.139h-4.996c-3.47 0-6.293 2.821-6.293 6.292C33.04 21.649 35.863 24.472 39.333 24.472z" fill="#ff9866" data-fill-palette-color="accent"></path></svg></g><g transform="matrix(1,0,0,1,255.59994664109806,11.7729)"><svg width="262.16" viewBox="2.190000057220459 -37.599998474121094 262.1399841308594 38.099998474121094" height="38.1" data-palette-color="#ffffff"><path d="M24.9-29.6L24.9-29.6Q23.6-31.05 21.7-32.1 19.8-33.15 16.75-33.15L16.75-33.15Q13.2-33.15 11.23-31.68 9.25-30.2 9.25-27.6L9.25-27.6Q9.25-26.9 9.6-25.95 9.95-25 11.03-24.13 12.1-23.25 14.15-22.5L14.15-22.5 21.65-20.15Q26.2-18.75 28.18-16.18 30.15-13.6 30.15-10.15L30.15-10.15Q30.15-6.85 28.48-4.45 26.8-2.05 23.73-0.78 20.65 0.5 16.4 0.5L16.4 0.5Q13.25 0.5 10.58-0.23 7.9-0.95 5.83-2.38 3.75-3.8 2.35-5.85L2.35-5.85Q2.15-6.2 2.2-6.5 2.25-6.8 2.65-7.1L2.65-7.1 5.1-8.8Q5.65-9.15 5.95-9.1 6.25-9.05 6.5-8.75L6.5-8.75Q7.75-7.15 9.03-6.05 10.3-4.95 11.98-4.42 13.65-3.9 16.05-3.9L16.05-3.9Q19.8-3.9 22.08-5.23 24.35-6.55 24.35-9.45L24.35-9.45Q24.35-10.6 23.9-11.53 23.45-12.45 22.35-13.23 21.25-14 19.15-14.75L19.15-14.75 11.6-17.2Q8.75-18.15 6.98-19.65 5.2-21.15 4.35-23.05 3.5-24.95 3.5-26.95L3.5-26.95Q3.5-30.15 5.15-32.55 6.8-34.95 9.75-36.27 12.7-37.6 16.65-37.6L16.65-37.6Q19.3-37.6 21.53-36.98 23.75-36.35 25.6-35.23 27.45-34.1 28.75-32.55L28.75-32.55Q28.95-32.3 29.03-32.05 29.1-31.8 28.75-31.5L28.75-31.5 25.9-29.3Q25.6-29.1 25.43-29.18 25.25-29.25 24.9-29.6L24.9-29.6ZM58.6-16.9L43.55-16.9Q43.05-16.9 43.05-16.4L43.05-16.4 43.05-0.85Q43.05 0 42.1 0L42.1 0 37.85 0Q37.35 0 37.17-0.2 37-0.4 37-0.8L37-0.8 37-36.35Q37-37.1 37.7-37.1L37.7-37.1 42.4-37.1Q43.05-37.1 43.05-36.35L43.05-36.35 43.05-22.3Q43.05-21.6 43.7-21.6L43.7-21.6 58.55-21.6Q59.15-21.6 59.15-22.25L59.15-22.25 59.15-36.4Q59.15-37.1 59.75-37.1L59.75-37.1 64.55-37.1Q65.2-37.1 65.2-36.35L65.2-36.35 65.2-0.8Q65.2-0.4 65.02-0.2 64.85 0 64.35 0L64.35 0 60.15 0Q59.15 0 59.15-0.85L59.15-0.85 59.15-16.35Q59.15-16.9 58.6-16.9L58.6-16.9ZM88.8 0.5L88.8 0.5Q83.75 0.5 80.09-1.73 76.44-3.95 74.5-8.18 72.55-12.4 72.55-18.4L72.55-18.4Q72.55-24.45 74.55-28.75 76.55-33.05 80.19-35.33 83.84-37.6 88.84-37.6L88.84-37.6Q93.8-37.6 97.42-35.33 101.05-33.05 103.02-28.78 105-24.5 105-18.45L105-18.45Q105-12.45 103.05-8.22 101.09-4 97.44-1.75 93.8 0.5 88.8 0.5L88.8 0.5ZM88.84-3.95L88.84-3.95Q93.84-3.95 96.27-7.43 98.69-10.9 98.69-18.4L98.69-18.4Q98.69-26 96.22-29.6 93.75-33.2 88.84-33.2L88.84-33.2Q83.84-33.2 81.34-29.58 78.84-25.95 78.84-18.4L78.84-18.4Q78.84-10.95 81.34-7.45 83.84-3.95 88.84-3.95L88.84-3.95ZM140.39-26.05L140.39-26.05Q140.39-22.35 138.69-19.93 136.99-17.5 133.99-16.3 130.99-15.1 127.09-15.1L127.09-15.1 118.89-15.1Q118.39-15.1 118.39-14.6L118.39-14.6 118.39-0.85Q118.39 0 117.49 0L117.49 0 113.14 0Q112.69 0 112.52-0.18 112.34-0.35 112.34-0.75L112.34-0.75 112.34-36.35Q112.34-37.1 113.04-37.1L113.04-37.1 126.39-37.1Q130.34-37.1 133.52-35.95 136.69-34.8 138.54-32.35 140.39-29.9 140.39-26.05L140.39-26.05ZM134.19-26.2L134.19-26.2Q134.19-28.5 133.19-29.93 132.19-31.35 130.37-32 128.54-32.65 126.04-32.65L126.04-32.65 119.14-32.65Q118.39-32.65 118.39-31.95L118.39-31.95 118.39-20.3Q118.39-19.55 118.94-19.55L118.94-19.55 126.39-19.55Q129.94-19.55 132.07-21.2 134.19-22.85 134.19-26.2L134.19-26.2ZM175.29-26.05L175.29-26.05Q175.29-22.35 173.59-19.93 171.89-17.5 168.89-16.3 165.89-15.1 161.99-15.1L161.99-15.1 153.79-15.1Q153.29-15.1 153.29-14.6L153.29-14.6 153.29-0.85Q153.29 0 152.39 0L152.39 0 148.04 0Q147.59 0 147.41-0.18 147.24-0.35 147.24-0.75L147.24-0.75 147.24-36.35Q147.24-37.1 147.94-37.1L147.94-37.1 161.29-37.1Q165.24-37.1 168.42-35.95 171.59-34.8 173.44-32.35 175.29-29.9 175.29-26.05L175.29-26.05ZM169.09-26.2L169.09-26.2Q169.09-28.5 168.09-29.93 167.09-31.35 165.27-32 163.44-32.65 160.94-32.65L160.94-32.65 154.04-32.65Q153.29-32.65 153.29-31.95L153.29-31.95 153.29-20.3Q153.29-19.55 153.84-19.55L153.84-19.55 161.29-19.55Q164.84-19.55 166.97-21.2 169.09-22.85 169.09-26.2L169.09-26.2ZM182.84-37.1L187.54-37.1Q188.19-37.1 188.19-36.35L188.19-36.35 188.19-0.95Q188.19-0.4 187.96-0.2 187.74 0 187.14 0L187.14 0 183.04 0Q182.49 0 182.31-0.18 182.14-0.35 182.14-0.8L182.14-0.8 182.14-36.35Q182.14-37.1 182.84-37.1L182.84-37.1ZM221.74-37.1L225.54-37.1Q226.09-37.1 226.09-36.45L226.09-36.45 226.09-0.65Q226.09-0.35 225.89-0.18 225.69 0 225.34 0L225.34 0 222.09 0Q221.74 0 221.49-0.08 221.24-0.15 220.99-0.5L220.99-0.5 202.74-26.7Q202.49-27.05 202.34-27 202.19-26.95 202.19-26.65L202.19-26.65 202.19-0.7Q202.19 0 201.39 0L201.39 0 197.84 0Q197.04 0 197.04-0.7L197.04-0.7 197.04-36.35Q197.04-37.1 197.79-37.1L197.79-37.1 201.69-37.1Q202.09-37.1 202.31-37 202.54-36.9 202.79-36.5L202.79-36.5 220.29-11.15Q220.59-10.75 220.81-10.83 221.04-10.9 221.04-11.25L221.04-11.25 221.04-36.4Q221.04-37.1 221.74-37.1L221.74-37.1ZM249.28 0.5L249.28 0.5Q244.43 0.5 240.83-1.8 237.23-4.1 235.31-8.35 233.38-12.6 233.38-18.4L233.38-18.4Q233.38-24.4 235.41-28.7 237.43-33 241.08-35.3 244.73-37.6 249.58-37.6L249.58-37.6Q253.23-37.6 256.26-36.15 259.28-34.7 261.21-32.38 263.13-30.05 263.58-27.4L263.58-27.4Q263.68-26.9 263.58-26.73 263.48-26.55 263.13-26.45L263.13-26.45 258.58-25.75Q258.28-25.7 258.16-25.85 258.03-26 257.98-26.35L257.98-26.35Q257.63-28.25 256.48-29.78 255.33-31.3 253.56-32.23 251.78-33.15 249.48-33.15L249.48-33.15Q246.38-33.15 244.18-31.55 241.98-29.95 240.86-26.75 239.73-23.55 239.73-18.7L239.73-18.7Q239.73-13.6 240.88-10.35 242.03-7.1 244.26-5.53 246.48-3.95 249.63-3.95L249.63-3.95Q251.78-3.95 253.43-4.65 255.08-5.35 256.18-6.55 257.28-7.75 257.88-9.15 258.48-10.55 258.63-11.95L258.63-11.95 258.68-14.45Q258.78-15.05 258.18-15.05L258.18-15.05 250.68-15.05Q250.38-15.05 250.23-15.18 250.08-15.3 250.08-15.65L250.08-15.65 250.08-18.3Q250.08-18.85 250.63-18.85L250.63-18.85 263.33-18.8Q263.83-18.8 264.08-18.57 264.33-18.35 264.33-18L264.33-18 264.33-0.65Q264.33-0.3 264.16-0.15 263.98 0 263.68 0L263.68 0 262.38 0Q262.03 0 261.76-0.13 261.48-0.25 261.33-0.65L261.33-0.65 260.53-4.95Q260.48-5.2 260.36-5.2 260.23-5.2 260.03-4.95L260.03-4.95Q259.13-3.55 257.71-2.3 256.28-1.05 254.21-0.28 252.13 0.5 249.28 0.5L249.28 0.5Z" opacity="1" transform="matrix(1,0,0,1,0,0)" fill="#ffffff" class="undefined-p-1"></path></svg></g></svg></g></svg></g></svg></g></svg></g></svg></g><defs></defs></svg><rect width="395.52" height="47.09160485312949" fill="none" stroke="none" visibility="hidden"></rect></g></svg></g></svg>