<?xml version="1.0" standalone="no"?>
<!DOCTYPE svg PUBLIC "-//W3C//DTD SVG 20010904//EN"
 "http://www.w3.org/TR/2001/REC-SVG-20010904/DTD/svg10.dtd">
<svg version="1.0" xmlns="http://www.w3.org/2000/svg"
 width="490.000000pt" height="490.000000pt" viewBox="0 0 490.000000 490.000000"
 preserveAspectRatio="xMidYMid meet">
<metadata>
Created by potrace 1.14, written by Peter Selinger 2001-2017
</metadata>
<g transform="translate(0.000000,490.000000) scale(0.100000,-0.100000)"
fill="#000000" stroke="none">
<path d="M2370 4892 c0 -5 -17 -17 -38 -26 -51 -23 -138 -107 -125 -120 4 -3
2 -6 -4 -6 -14 0 -36 -76 -39 -135 -2 -27 -3 -54 -3 -60 -1 -6 -58 -10 -154
-9 -166 1 -226 -12 -296 -64 -44 -33 -91 -82 -91 -95 0 -6 -8 -19 -17 -30 -10
-11 -13 -17 -6 -14 7 5 5 -5 -4 -24 -19 -37 -24 -128 -11 -179 13 -50 32 -90
41 -90 5 0 6 -4 3 -8 -3 -5 3 -16 13 -24 11 -9 23 -22 27 -30 12 -18 91 -69
115 -73 10 -2 24 -7 29 -10 23 -14 82 -15 655 -14 679 1 635 1 635 11 0 4 14
8 30 8 17 0 30 4 30 9 0 5 13 14 30 21 29 12 88 60 74 60 -4 0 3 9 15 19 12
11 22 22 22 25 0 3 9 27 21 53 31 71 29 224 -3 244 -6 3 -10 9 -10 13 2 9 -29
68 -43 81 -32 32 -109 84 -117 79 -5 -3 -9 0 -9 7 0 7 -3 9 -7 6 -3 -4 -13 -1
-21 5 -10 9 -65 13 -174 14 -174 2 -177 3 -179 59 0 17 -2 37 -4 45 -2 8 -7
28 -10 45 -8 37 -42 93 -75 122 -44 39 -48 43 -84 60 -20 9 -36 20 -36 25 0 4
-40 8 -90 8 -49 0 -90 -4 -90 -8z"/>
<path d="M1055 4168 c-66 -9 -78 -12 -92 -21 -7 -5 -13 -5 -13 -1 0 4 -9 -1
-20 -11 -11 -10 -20 -15 -20 -12 0 4 -15 -2 -32 -11 -34 -19 -152 -151 -143
-160 2 -3 -2 -10 -10 -16 -13 -10 -19 -27 -32 -106 -9 -49 -8 -3244 1 -3305 4
-27 8 -57 9 -65 2 -14 44 -89 56 -100 4 -3 7 -11 9 -18 1 -7 19 -27 39 -45 20
-18 42 -37 48 -43 6 -7 36 -25 66 -40 l54 -29 1480 0 1480 0 58 27 c31 15 74
43 95 62 20 20 40 36 45 36 4 0 7 5 7 11 0 6 11 25 25 43 14 18 25 38 25 44 0
7 4 12 9 12 5 0 15 30 22 68 19 100 19 3289 0 3380 -8 34 -17 62 -21 62 -4 0
-13 13 -20 29 -21 51 -111 137 -177 170 -35 17 -66 30 -70 29 -5 -1 -20 2 -34
6 -15 4 -90 9 -168 10 -159 2 -146 9 -155 -79 -2 -22 -10 -53 -16 -70 -6 -16
-11 -31 -11 -32 0 -2 -9 -20 -21 -40 -12 -21 -28 -50 -35 -65 -8 -15 -22 -32
-31 -38 -9 -5 -14 -10 -10 -10 10 0 -52 -60 -63 -60 -5 0 -9 -4 -9 -9 0 -6
-18 -20 -40 -32 -22 -13 -40 -27 -40 -33 0 -5 -3 -7 -6 -3 -3 3 -23 -3 -45
-15 -21 -11 -44 -21 -51 -22 -7 -1 -19 -5 -25 -9 -7 -5 -13 -6 -13 -3 0 2 -15
0 -32 -5 -44 -13 -1292 -13 -1335 0 -18 5 -33 7 -33 4 0 -3 -6 0 -13 6 -8 6
-17 8 -20 4 -4 -3 -7 -1 -7 6 0 7 -4 10 -9 6 -11 -6 -101 35 -101 47 0 4 -6 8
-12 8 -14 0 -54 31 -107 82 -29 28 -101 129 -101 141 0 3 -7 21 -15 41 -8 20
-14 37 -13 38 1 2 -4 14 -11 26 -7 13 -13 44 -13 68 0 26 -4 44 -11 45 -46 5
-231 3 -272 -3z"/>
</g>
</svg>
