<svg xmlns="http://www.w3.org/2000/svg" version="1.1" xmlns:xlink="http://www.w3.org/1999/xlink" xmlns:svgjs="http://svgjs.dev/svgjs" width="1000" height="1000" viewBox="0 0 1000 1000"><rect width="1000" height="1000" fill="#003366"></rect><g transform="matrix(0.7,0,0,0.7,149.5757595067809,439.9308887056914)"><svg viewBox="0 0 396 68" data-background-color="#003366" preserveAspectRatio="xMidYMid meet" height="171" width="1000" xmlns="http://www.w3.org/2000/svg" xmlns:xlink="http://www.w3.org/1999/xlink"><g id="tight-bounds" transform="matrix(1,0,0,1,0.23999890759250775,0.12447475470256109)"><svg viewBox="0 0 395.52 67.75105037671342" height="67.75105037671342" width="395.52"><g><svg viewBox="0 0 540.4264546853082 92.57296712250442" height="67.75105037671342" width="395.52"><g><svg viewBox="0 0 540.4264546853082 92.57296712250442" height="92.57296712250442" width="540.4264546853082"><g id="textblocktransform"><svg viewBox="0 0 540.4264546853082 92.57296712250442" height="92.57296712250442" width="540.4264546853082" id="textblock"><g><svg viewBox="0 0 540.4264546853082 61.645799999999994" height="61.645799999999994" width="540.4264546853082"><g><svg><g></g><g></g></svg></g><g><svg><g></g><g><svg></svg></g></svg></g><g id="text-0"><svg viewBox="0 0 540.4264546853082 61.645799999999994" height="61.645799999999994" width="540.4264546853082"><g transform="matrix(1,0,0,1,0,11.772899999999996)"><svg width="177.8" viewBox="4.849999904632568 -37.599998474121094 177.7899932861328 38.099998474121094" height="38.1" data-palette-color="#ffffff"><path d="M5.55 0L5.55 0Q4.85 0 4.85-0.75L4.85-0.75 4.85-36.4Q4.85-37.1 5.45-37.1L5.45-37.1 10.25-37.1Q10.65-37.1 10.83-37 11-36.9 11.1-36.55L11.1-36.55 22.2-7.9Q22.4-7.45 22.6-7.48 22.8-7.5 23-7.95L23-7.95 34.1-36.45Q34.3-37.1 34.85-37.1L34.85-37.1 39.9-37.1Q40.45-37.1 40.45-36.45L40.45-36.45 40.45-0.75Q40.45 0 39.7 0L39.7 0 36.4 0Q36 0 35.83-0.15 35.65-0.3 35.65-0.65L35.65-0.65 35.65-29.25Q35.65-29.5 35.55-29.48 35.45-29.45 35.4-29.25L35.4-29.25 24.4-0.65Q24.15 0 23.45 0L23.45 0 21.05 0Q20.25 0 20.05-0.6L20.05-0.6 9.2-28.95Q9.1-29.2 9.03-29.18 8.95-29.15 8.95-28.95L8.95-28.95 8.95-0.65Q8.95-0.3 8.8-0.15 8.65 0 8.25 0L8.25 0 5.55 0ZM64.4 0.5L64.4 0.5Q59.5 0.5 55.92-1.7 52.35-3.9 50.45-8.13 48.55-12.35 48.55-18.4L48.55-18.4Q48.55-24.5 50.5-28.8 52.45-33.1 56-35.35 59.55-37.6 64.45-37.6L64.45-37.6Q69.35-37.6 72.87-35.35 76.4-33.1 78.32-28.85 80.25-24.6 80.25-18.45L80.25-18.45Q80.25-12.4 78.35-8.18 76.45-3.95 72.87-1.73 69.3 0.5 64.4 0.5L64.4 0.5ZM64.5-3.15L64.5-3.15Q69.9-3.15 72.57-6.88 75.25-10.6 75.25-18.4L75.25-18.4Q75.25-26.35 72.52-30.15 69.8-33.95 64.45-33.95L64.45-33.95Q59.05-33.95 56.3-30.13 53.55-26.3 53.55-18.4L53.55-18.4Q53.55-10.65 56.3-6.9 59.05-3.15 64.5-3.15L64.5-3.15ZM113-37.1L115.95-37.1Q116.5-37.1 116.5-36.5L116.5-36.5 116.5-0.6Q116.5-0.3 116.32-0.15 116.15 0 115.84 0L115.84 0 113.4 0Q113.09 0 112.84-0.05 112.59-0.1 112.34-0.4L112.34-0.4 93.05-28.45Q92.8-28.8 92.65-28.75 92.5-28.7 92.5-28.4L92.5-28.4 92.5-0.65Q92.5 0 91.8 0L91.8 0 89 0Q88.34 0 88.34-0.65L88.34-0.65 88.34-36.4Q88.34-37.1 89-37.1L89-37.1 91.84-37.1Q92.25-37.1 92.45-37.02 92.65-36.95 92.9-36.6L92.9-36.6 111.65-9.15Q111.95-8.8 112.17-8.9 112.4-9 112.4-9.3L112.4-9.3 112.4-36.5Q112.4-37.1 113-37.1L113-37.1ZM123.44-33.95L123.44-36.55Q123.44-36.8 123.57-36.95 123.69-37.1 124.04-37.1L124.04-37.1 150.94-37.1Q151.24-37.1 151.39-36.95 151.54-36.8 151.54-36.55L151.54-36.55 151.54-33.95Q151.54-33.45 150.94-33.45L150.94-33.45 140.79-33.45Q140.24-33.45 140.24-32.95L140.24-32.95 140.24-0.65Q140.24 0 139.64 0L139.64 0 136.04 0Q135.44 0 135.44-0.65L135.44-0.65 135.44-32.9Q135.44-33.45 134.94-33.45L134.94-33.45 124.04-33.45Q123.44-33.45 123.44-33.95L123.44-33.95ZM158.44-36.4L158.44-36.4Q158.44-37.1 159.04-37.1L159.04-37.1 181.49-37.1Q181.99-37.1 181.99-36.55L181.99-36.55 181.99-34Q181.99-33.4 181.34-33.4L181.34-33.4 163.89-33.4Q163.24-33.4 163.24-32.8L163.24-32.8 163.24-21.1Q163.24-20.55 163.79-20.55L163.79-20.55 176.74-20.55Q177.29-20.55 177.29-20L177.29-20 177.29-17.35Q177.29-17.15 177.19-17.03 177.09-16.9 176.74-16.9L176.74-16.9 163.79-16.9Q163.24-16.9 163.24-16.35L163.24-16.35 163.24-4.2Q163.24-3.7 163.74-3.7L163.74-3.7 182.09-3.7Q182.64-3.7 182.64-3.2L182.64-3.2 182.64-0.55Q182.64-0.3 182.52-0.15 182.39 0 182.09 0L182.09 0 159.14 0Q158.44 0 158.44-0.7L158.44-0.7 158.44-36.4Z" opacity="1" transform="matrix(1,0,0,1,0,0)" fill="#ffffff" class="undefined-p-0"></path></svg></g><g><svg xmlns="http://www.w3.org/2000/svg" xmlns:xlink="http://www.w3.org/1999/xlink" version="1.1" x="192.35420000000002" y="0" viewBox="5.000998020172119 12.653000831604004 89.99846649169922 74.69500732421875" enable-background="new 0 0 100 100" xml:space="preserve" height="61.645799999999994" width="74.2757469930005" class="icon-s-0" data-fill-palette-color="accent" id="s-0"><g fill="#ff9966" data-fill-palette-color="accent"><path fill="#ff9966" d="M92.754 60.094v-0.216h2.188l-1.903-25.83c0-3.275-2.842-5.93-6.348-5.93h-0.316c-3.506 0-6.346 2.654-6.346 5.93l-0.235 3.183L69.099 49.741c-1.098 1.284-0.947 3.215 0.337 4.312 0.577 0.492 1.282 0.734 1.986 0.734 0.863 0 1.72-0.364 2.325-1.072l5.286-6.185-0.909 12.348h2.188v0.216l-2.233 23.911c-0.156 1.683 1.079 3.173 2.761 3.33 0.097 0.01 0.192 0.013 0.288 0.013 1.561 0 2.894-1.188 3.041-2.773l2.161-23.147h0.406l2.161 23.147c0.147 1.585 1.479 2.773 3.041 2.773 0.096 0 0.191-0.003 0.287-0.013 1.683-0.157 2.918-1.647 2.761-3.33L92.754 60.094z" data-fill-palette-color="accent"></path><circle fill="#ff9966" cx="86.043" cy="19.363" r="6.7" data-fill-palette-color="accent"></circle><circle fill="#ff9966" cx="48.829" cy="83.474" r="3.9" data-fill-palette-color="accent"></circle><circle fill="#ff9966" cx="64.491" cy="83.474" r="3.9" data-fill-palette-color="accent"></circle><path fill="#ff9966" d="M75.211 59.021c-0.013-0.076-0.024-0.15-0.043-0.225-0.02-0.08-0.046-0.157-0.073-0.233-0.026-0.076-0.056-0.151-0.089-0.224-0.033-0.071-0.071-0.14-0.112-0.21-0.04-0.067-0.083-0.134-0.13-0.199-0.047-0.066-0.101-0.126-0.153-0.188-0.053-0.059-0.104-0.113-0.161-0.167-0.06-0.056-0.123-0.105-0.188-0.156-0.065-0.048-0.13-0.096-0.2-0.139-0.064-0.039-0.133-0.075-0.202-0.11-0.079-0.039-0.162-0.075-0.246-0.107-0.033-0.011-0.062-0.03-0.096-0.04-0.039-0.014-0.08-0.015-0.12-0.026-0.084-0.022-0.17-0.041-0.26-0.055-0.084-0.014-0.167-0.021-0.249-0.025-0.044-0.003-0.086-0.013-0.13-0.013H45.141l-0.924-5.424c-0.003-0.014-0.008-0.023-0.012-0.037-0.018-0.101-0.05-0.194-0.079-0.29-0.02-0.063-0.034-0.127-0.059-0.186-0.037-0.094-0.087-0.18-0.136-0.268-0.029-0.054-0.053-0.11-0.087-0.161-0.06-0.092-0.131-0.174-0.203-0.257-0.032-0.037-0.06-0.078-0.094-0.113-0.086-0.089-0.182-0.166-0.281-0.242-0.027-0.021-0.05-0.045-0.079-0.065-0.101-0.07-0.209-0.128-0.319-0.183-0.034-0.017-0.065-0.038-0.098-0.053-0.095-0.042-0.196-0.071-0.296-0.101-0.059-0.018-0.113-0.041-0.172-0.054-0.08-0.018-0.162-0.022-0.245-0.032-0.086-0.011-0.169-0.024-0.254-0.026-0.015 0-0.028-0.004-0.041-0.004h-5.647L25.707 37.23l-0.235-3.183c0-3.275-2.841-5.93-6.346-5.93h-0.317c-3.505 0-6.346 2.654-6.346 5.93l-0.235 3.193-0.76 10.301L8.896 68.178h3.849v0.218l-2.232 15.609c-0.157 1.683 1.078 3.173 2.761 3.33 0.096 0.01 0.193 0.013 0.287 0.013 1.561 0 2.893-1.188 3.041-2.771l2.163-14.851h0.405l2.161 14.851c0.149 1.583 1.482 2.771 3.041 2.771 0.096 0 0.191-0.003 0.289-0.013 1.681-0.157 2.917-1.647 2.761-3.33l-2.234-15.611v-0.216h3.848L26.465 47.53l5.286 6.185c0.606 0.708 1.464 1.072 2.326 1.072 0.545 0 1.09-0.15 1.577-0.444 0.146 0.026 0.295 0.045 0.449 0.045h3.558l3.796 22.272c0.001 0.015 0.008 0.026 0.01 0.041 0.013 0.068 0.036 0.133 0.054 0.201 0.024 0.086 0.047 0.172 0.079 0.253 0.024 0.062 0.054 0.12 0.083 0.178 0.041 0.081 0.081 0.161 0.128 0.237 0.034 0.053 0.071 0.104 0.108 0.153 0.055 0.073 0.112 0.143 0.173 0.209 0.042 0.046 0.086 0.09 0.133 0.134 0.064 0.06 0.134 0.114 0.206 0.168 0.05 0.039 0.102 0.076 0.157 0.11 0.076 0.049 0.156 0.089 0.237 0.128 0.057 0.027 0.11 0.057 0.168 0.081 0.096 0.037 0.196 0.065 0.295 0.091 0.05 0.013 0.096 0.031 0.146 0.041 0.154 0.029 0.312 0.047 0.474 0.047 0.001 0 0.003 0 0.005 0h21.44c0.003 0 0.006 0.001 0.01 0.001 0.155 0 0.306-0.019 0.457-0.047 0.045-0.01 0.089-0.022 0.135-0.032 0.101-0.025 0.197-0.055 0.295-0.093 0.05-0.019 0.099-0.038 0.147-0.06 0.094-0.044 0.183-0.094 0.271-0.147 0.037-0.022 0.076-0.044 0.112-0.068 0.121-0.084 0.234-0.177 0.34-0.28 0.008-0.008 0.013-0.016 0.02-0.022 0.096-0.098 0.182-0.203 0.261-0.316 0.027-0.039 0.051-0.081 0.075-0.121 0.052-0.085 0.101-0.171 0.143-0.263 0.024-0.054 0.047-0.107 0.067-0.164 0.015-0.039 0.036-0.076 0.049-0.118l5.395-16.849c0.014-0.042 0.015-0.083 0.026-0.123 0.021-0.083 0.04-0.167 0.054-0.253 0.013-0.088 0.021-0.174 0.025-0.261 0.002-0.043 0.014-0.081 0.014-0.124 0-0.033-0.01-0.066-0.012-0.102C75.234 59.199 75.225 59.11 75.211 59.021z" data-fill-palette-color="accent"></path><path fill="#ff9966" d="M13.042 17.389c-0.193 0.624-0.296 1.287-0.296 1.975 0 3.706 3.005 6.71 6.711 6.71s6.711-3.004 6.711-6.71c0-3.707-3.005-6.711-6.711-6.711-2.184 0-4.118 1.047-5.343 2.662-1.028-0.745-3.163-1.795-5.05 0.517 0 0-1.57 1.995-4.063 0.222 0 0 0.596 3.594 4.093 2.856C9.093 18.909 11.286 18.47 13.042 17.389z" data-fill-palette-color="accent"></path></g></svg></g><g transform="matrix(1,0,0,1,281.1841469930005,11.772899999999996)"><svg width="259.2423076923077" viewBox="2.4106061458587646 -37.599998474121094 259.2193908691406 38.099998474121094" height="38.1" data-palette-color="#ffffff"><path d="M24.9-30.2L24.9-30.2Q23.6-31.75 21.55-32.85 19.5-33.95 16.4-33.95L16.4-33.95Q12.65-33.95 10.5-32.3 8.35-30.65 8.35-27.7L8.35-27.7Q8.35-26.9 8.72-25.85 9.1-24.8 10.25-23.8 11.4-22.8 13.7-22L13.7-22 20.95-19.6Q25.5-18.1 27.4-15.63 29.3-13.15 29.3-9.8L29.3-9.8Q29.3-6.6 27.7-4.28 26.1-1.95 23.15-0.73 20.2 0.5 16.05 0.5L16.05 0.5Q13.05 0.5 10.5-0.23 7.95-0.95 5.98-2.33 4-3.7 2.6-5.75L2.6-5.75Q2.35-6.1 2.43-6.38 2.5-6.65 2.9-6.95L2.9-6.95 4.7-8.2Q5.2-8.5 5.48-8.5 5.75-8.5 5.95-8.2L5.95-8.2Q7.3-6.5 8.6-5.38 9.9-4.25 11.63-3.7 13.35-3.15 15.85-3.15L15.85-3.15Q19.8-3.15 22.25-4.58 24.7-6 24.7-9.3L24.7-9.3Q24.7-10.55 24.2-11.58 23.7-12.6 22.5-13.48 21.3-14.35 19.05-15.2L19.05-15.2 11.45-17.8Q8.7-18.75 7-20.25 5.3-21.75 4.53-23.55 3.75-25.35 3.75-27.25L3.75-27.25Q3.75-30.4 5.35-32.73 6.95-35.05 9.78-36.33 12.6-37.6 16.4-37.6L16.4-37.6Q18.95-37.6 21.08-37 23.2-36.4 24.98-35.3 26.75-34.2 28.1-32.65L28.1-32.65Q28.3-32.45 28.35-32.2 28.4-31.95 28.1-31.7L28.1-31.7 25.8-29.9Q25.55-29.75 25.4-29.83 25.25-29.9 24.9-30.2L24.9-30.2ZM58.7-17.35L42.1-17.35Q41.7-17.35 41.7-16.95L41.7-16.95 41.7-0.75Q41.7 0 40.85 0L40.85 0 37.6 0Q37.2 0 37.05-0.18 36.9-0.35 36.9-0.7L36.9-0.7 36.9-36.4Q36.9-37.1 37.5-37.1L37.5-37.1 41.1-37.1Q41.7-37.1 41.7-36.45L41.7-36.45 41.7-21.75Q41.7-21.15 42.25-21.15L42.25-21.15 58.65-21.15Q59.15-21.15 59.15-21.75L59.15-21.75 59.15-36.5Q59.15-37.1 59.7-37.1L59.7-37.1 63.35-37.1Q63.95-37.1 63.95-36.4L63.95-36.4 63.95-0.7Q63.95-0.35 63.8-0.18 63.65 0 63.25 0L63.25 0 60 0Q59.15 0 59.15-0.75L59.15-0.75 59.15-16.9Q59.15-17.35 58.7-17.35L58.7-17.35ZM87.9 0.5L87.9 0.5Q83 0.5 79.42-1.7 75.85-3.9 73.95-8.13 72.05-12.35 72.05-18.4L72.05-18.4Q72.05-24.5 74-28.8 75.95-33.1 79.5-35.35 83.05-37.6 87.95-37.6L87.95-37.6Q92.85-37.6 96.37-35.35 99.9-33.1 101.82-28.85 103.75-24.6 103.75-18.45L103.75-18.45Q103.75-12.4 101.85-8.18 99.95-3.95 96.37-1.73 92.8 0.5 87.9 0.5L87.9 0.5ZM88-3.15L88-3.15Q93.4-3.15 96.07-6.88 98.75-10.6 98.75-18.4L98.75-18.4Q98.75-26.35 96.02-30.15 93.3-33.95 87.95-33.95L87.95-33.95Q82.55-33.95 79.8-30.13 77.05-26.3 77.05-18.4L77.05-18.4Q77.05-10.65 79.8-6.9 82.55-3.15 88-3.15L88-3.15ZM138.79-26.3L138.79-26.3Q138.79-22.6 137.09-20.2 135.39-17.8 132.44-16.65 129.49-15.5 125.59-15.5L125.59-15.5 117.09-15.5Q116.64-15.5 116.64-15.05L116.64-15.05 116.64-0.75Q116.64 0 115.89 0L115.89 0 112.49 0Q112.14 0 111.99-0.15 111.84-0.3 111.84-0.65L111.84-0.65 111.84-36.4Q111.84-37.1 112.44-37.1L112.44-37.1 125.04-37.1Q128.99-37.1 132.09-36 135.19-34.9 136.99-32.5 138.79-30.1 138.79-26.3L138.79-26.3ZM133.89-26.45L133.89-26.45Q133.89-29 132.77-30.55 131.64-32.1 129.62-32.77 127.59-33.45 124.79-33.45L124.79-33.45 117.29-33.45Q116.64-33.45 116.64-32.85L116.64-32.85 116.64-19.85Q116.64-19.15 117.09-19.15L117.09-19.15 125.14-19.15Q129.09-19.15 131.49-20.9 133.89-22.65 133.89-26.45L133.89-26.45ZM173.29-26.3L173.29-26.3Q173.29-22.6 171.59-20.2 169.89-17.8 166.94-16.65 163.99-15.5 160.09-15.5L160.09-15.5 151.59-15.5Q151.14-15.5 151.14-15.05L151.14-15.05 151.14-0.75Q151.14 0 150.39 0L150.39 0 146.99 0Q146.64 0 146.49-0.15 146.34-0.3 146.34-0.65L146.34-0.65 146.34-36.4Q146.34-37.1 146.94-37.1L146.94-37.1 159.54-37.1Q163.49-37.1 166.59-36 169.69-34.9 171.49-32.5 173.29-30.1 173.29-26.3L173.29-26.3ZM168.39-26.45L168.39-26.45Q168.39-29 167.27-30.55 166.14-32.1 164.12-32.77 162.09-33.45 159.29-33.45L159.29-33.45 151.79-33.45Q151.14-33.45 151.14-32.85L151.14-32.85 151.14-19.85Q151.14-19.15 151.59-19.15L151.59-19.15 159.64-19.15Q163.59-19.15 165.99-20.9 168.39-22.65 168.39-26.45L168.39-26.45ZM181.44-37.1L185.04-37.1Q185.64-37.1 185.64-36.45L185.64-36.45 185.64-0.85Q185.64-0.35 185.44-0.18 185.24 0 184.74 0L184.74 0 181.59 0Q181.14 0 180.99-0.15 180.84-0.3 180.84-0.7L180.84-0.7 180.84-36.4Q180.84-37.1 181.44-37.1L181.44-37.1ZM219.99-37.1L222.94-37.1Q223.49-37.1 223.49-36.5L223.49-36.5 223.49-0.6Q223.49-0.3 223.31-0.15 223.14 0 222.84 0L222.84 0 220.39 0Q220.09 0 219.84-0.05 219.59-0.1 219.34-0.4L219.34-0.4 200.04-28.45Q199.79-28.8 199.64-28.75 199.49-28.7 199.49-28.4L199.49-28.4 199.49-0.65Q199.49 0 198.79 0L198.79 0 195.99 0Q195.34 0 195.34-0.65L195.34-0.65 195.34-36.4Q195.34-37.1 195.99-37.1L195.99-37.1 198.84-37.1Q199.24-37.1 199.44-37.02 199.64-36.95 199.89-36.6L199.89-36.6 218.64-9.15Q218.94-8.8 219.16-8.9 219.39-9 219.39-9.3L219.39-9.3 219.39-36.5Q219.39-37.1 219.99-37.1L219.99-37.1ZM247.08 0.5L247.08 0.5Q242.28 0.5 238.78-1.78 235.28-4.05 233.43-8.28 231.58-12.5 231.58-18.4L231.58-18.4Q231.58-24.45 233.53-28.75 235.48-33.05 239.03-35.33 242.58-37.6 247.28-37.6L247.28-37.6Q250.78-37.6 253.71-36.2 256.63-34.8 258.56-32.5 260.48-30.2 260.88-27.6L260.88-27.6Q260.93-27.2 260.86-27.05 260.78-26.9 260.48-26.8L260.48-26.8 256.88-26.25Q256.63-26.2 256.51-26.33 256.38-26.45 256.33-26.75L256.33-26.75Q255.98-28.75 254.73-30.38 253.48-32 251.56-32.98 249.63-33.95 247.23-33.95L247.23-33.95Q243.83-33.95 241.43-32.23 239.03-30.5 237.81-27.08 236.58-23.65 236.58-18.7L236.58-18.7Q236.58-13.5 237.81-10.03 239.03-6.55 241.46-4.85 243.88-3.15 247.33-3.15L247.33-3.15Q249.78-3.15 251.58-3.98 253.38-4.8 254.58-6.18 255.78-7.55 256.43-9.13 257.08-10.7 257.13-12.2L257.13-12.2 257.18-15.2Q257.28-15.7 256.68-15.7L256.68-15.7 248.53-15.7Q248.23-15.7 248.11-15.83 247.98-15.95 247.98-16.25L247.98-16.25 247.98-18.4Q247.98-18.85 248.48-18.85L248.48-18.85 260.88-18.8Q261.23-18.8 261.43-18.65 261.63-18.5 261.63-18.2L261.63-18.2 261.63-0.65Q261.63-0.3 261.48-0.15 261.33 0 261.03 0L261.03 0 259.88 0Q259.53 0 259.31-0.1 259.08-0.2 258.98-0.6L258.98-0.6 258.43-5.25Q258.38-5.45 258.26-5.45 258.13-5.45 257.98-5.2L257.98-5.2Q257.03-3.7 255.58-2.4 254.13-1.1 252.03-0.3 249.93 0.5 247.08 0.5L247.08 0.5Z" opacity="1" transform="matrix(1,0,0,1,0,0)" fill="#ffffff" class="undefined-p-1"></path></svg></g></svg></g></svg></g><g transform="matrix(1,0,0,1,103.22145284489386,70.6402956)"><svg viewBox="0 0 333.98354899552044 21.932671522504435" height="21.932671522504435" width="333.98354899552044"><g transform="matrix(1,0,0,1,0,0)"><svg width="333.98354899552044" viewBox="2.200000047683716 -32.400001525878906 605.219970703125 39.75" height="21.932671522504435" data-palette-color="#ff9966"><path d="M19.5-7L19 0 2.2 0 2.2-31.05 19.5-31.05 19-23.4 10.75-23.4 10.75-18.75 17.9-18.75 17.9-12.15 10.75-12.15 10.75-7 19.5-7ZM39.75-17.7L39.75-17.7 39.5-7.35Q39.5-6.4 39.97-6.08 40.45-5.75 41.6-5.75L41.6-5.75 40.85 0.3Q37.95 0.5 37.65 0.5L37.65 0.5Q33.95 0.5 32.95-2.05L32.95-2.05 32.7-2.05Q30.85 0.5 27 0.5L27 0.5Q24.05 0.5 22.47-1.4 20.9-3.3 20.9-6.6L20.9-6.6Q20.9-10.75 23.47-12.35 26.05-13.95 31.6-14.45L31.6-14.45 31.6-15.65Q31.6-17.05 30.2-17.05L30.2-17.05Q27.8-17.05 22.7-15.6L22.7-15.6 21.45-22.9Q27.85-24.55 32.1-24.55 36.35-24.55 38.05-22.9 39.75-21.25 39.75-17.7ZM30.1-5.35L30.1-5.35Q31.95-5.35 31.95-7.3L31.95-7.3 31.95-9.75Q30.1-9.5 29.32-8.97 28.55-8.45 28.55-7.2L28.55-7.2Q28.55-5.35 30.1-5.35ZM42.2-16.88Q42.2-20.5 44.42-22.53 46.65-24.55 50.55-24.55 54.45-24.55 58.45-23.55L58.45-23.55 57.6-16.6Q52.5-17.75 50.75-17.75L50.75-17.75Q49.7-17.75 49.7-16.9L49.7-16.9Q49.7-16.35 50.85-15.9L50.85-15.9Q54.85-14.45 56.87-12.6 58.9-10.75 58.9-7.05 58.9-3.35 57-1.43 55.1 0.5 51.17 0.5 47.25 0.5 43.35-0.5L43.35-0.5 43.9-7.25Q48.9-5.9 50.37-5.9 51.85-5.9 51.85-6.6 51.85-7.3 50.75-7.7L50.75-7.7Q46.3-9.4 44.25-11.33 42.2-13.25 42.2-16.88ZM73.14-23.95L81.34-23.95 75.14 0.7Q74.19 4.4 72.34 5.88 70.49 7.35 66.29 7.35L66.29 7.35 61.29 7.35 60.54 0.9 63.34 0.9Q65.04 0.9 65.04-0.45L65.04-0.45Q65.04-0.75 64.84-1.75L64.84-1.75 59.09-23.95 67.99-23.95 70.24-9 70.69-9 73.14-23.95ZM92.04-16.88Q92.04-20.5 94.26-22.53 96.49-24.55 100.39-24.55 104.29-24.55 108.29-23.55L108.29-23.55 107.44-16.6Q102.34-17.75 100.59-17.75L100.59-17.75Q99.54-17.75 99.54-16.9L99.54-16.9Q99.54-16.35 100.69-15.9L100.69-15.9Q104.69-14.45 106.71-12.6 108.74-10.75 108.74-7.05 108.74-3.35 106.84-1.43 104.94 0.5 101.01 0.5 97.09 0.5 93.19-0.5L93.19-0.5 93.74-7.25Q98.74-5.9 100.21-5.9 101.69-5.9 101.69-6.6 101.69-7.3 100.59-7.7L100.59-7.7Q96.14-9.4 94.09-11.33 92.04-13.25 92.04-16.88ZM118.78-22.2L118.98-22.2Q121.73-24.55 124.94-24.55 128.13-24.55 129.46-23.03 130.78-21.5 130.78-18.45L130.78-18.45 130.78 0 122.28 0 122.28-15.6Q122.28-16.85 121.19-16.85L121.19-16.85Q119.78-16.85 118.84-16.15L118.84-16.15 118.84 0 110.44 0 110.44-32.05 118.78-32.05 118.78-22.2ZM133.38-12.08Q133.38-18.65 135.91-21.6 138.43-24.55 143.81-24.55 149.18-24.55 151.63-21.65 154.08-18.75 154.08-12.13 154.08-5.5 151.68-2.5 149.28 0.5 143.83 0.5 138.38 0.5 135.88-2.5 133.38-5.5 133.38-12.08ZM145.41-16.8Q145.08-17.8 143.78-17.8 142.48-17.8 142.13-16.8 141.78-15.8 141.78-12.6L141.78-12.6 141.78-11.4Q141.78-7.85 142.13-6.8 142.48-5.75 143.76-5.75 145.03-5.75 145.38-6.8 145.73-7.85 145.73-11.1L145.73-11.1 145.73-12.55Q145.73-15.8 145.41-16.8ZM165.28-0.55L165.08-0.55 165.08 6.85 156.68 6.85 156.68-23.95 163.58-23.95 164.08-22.45 164.33-22.45Q165.73-24.5 169.83-24.5 173.93-24.5 175.61-21.65 177.28-18.8 177.28-12.3 177.28-5.8 175.5-2.63 173.73 0.55 168.98 0.55L168.98 0.55Q166.78 0.55 165.28-0.55L165.28-0.55ZM168.61-7.53Q168.78-8.4 168.83-9.25 168.88-10.1 168.88-12.48 168.88-14.85 168.53-16.13 168.18-17.4 167.11-17.4 166.03-17.4 164.98-16.8L164.98-16.8 164.98-6.45Q165.93-6 166.81-6 167.68-6 168.06-6.33 168.43-6.65 168.61-7.53ZM188.58-0.55L188.38-0.55 188.38 6.85 179.98 6.85 179.98-23.95 186.88-23.95 187.38-22.45 187.63-22.45Q189.03-24.5 193.13-24.5 197.23-24.5 198.9-21.65 200.58-18.8 200.58-12.3 200.58-5.8 198.8-2.63 197.03 0.55 192.28 0.55L192.28 0.55Q190.08 0.55 188.58-0.55L188.58-0.55ZM191.9-7.53Q192.08-8.4 192.13-9.25 192.18-10.1 192.18-12.48 192.18-14.85 191.83-16.13 191.48-17.4 190.4-17.4 189.33-17.4 188.28-16.8L188.28-16.8 188.28-6.45Q189.23-6 190.1-6 190.98-6 191.35-6.33 191.73-6.65 191.9-7.53ZM211.73-23.7L211.73 0 203.48 0 203.48-23.7 211.73-23.7ZM204.13-25.6Q203.08-26.5 203.08-28.5 203.08-30.5 204.13-31.45 205.18-32.4 207.58-32.4 209.98-32.4 211.03-31.45 212.08-30.5 212.08-28.53 212.08-26.55 211.03-25.63 209.98-24.7 207.58-24.7 205.18-24.7 204.13-25.6ZM223.02-22.2L223.22-22.2Q225.97-24.55 229.27-24.55 232.57-24.55 233.9-23.03 235.22-21.5 235.22-18.45L235.22-18.45 235.22 0 226.72 0 226.72-15.6Q226.72-16.85 225.62-16.85L225.62-16.85Q224.22-16.85 223.27-16.15L223.27-16.15 223.27 0 214.87 0 214.87-23.95 222.52-23.95 223.02-22.2ZM245.47 2.2L245.47 2.2 250.62 2.2Q251.52 2.2 251.52 1.4L251.52 1.4 251.52 1.2Q251.52 0.45 250.62 0.45L250.62 0.45 245.47 0.45Q244.67 0.45 244.67 1.25L244.67 1.25 244.67 1.45Q244.67 2.2 245.47 2.2ZM247.47-24.55L247.47-24.55 259.27-24.55 259.27-18.95 255.67-18.95 255.67-18.7Q257.27-17.3 257.27-15.05L257.27-15.05Q257.27-7.05 248.22-7.05L248.22-7.05 245.82-7.05Q244.92-7.05 244.92-6.23 244.92-5.4 245.77-5.4L245.77-5.4 252.57-5.4Q258.32-5.4 258.32-0.4L258.32-0.4Q258.32 3.7 255.57 5.53 252.82 7.35 247.97 7.35 243.12 7.35 240.65 6.33 238.17 5.3 238.17 2.5L238.17 2.5Q238.17 0.95 240.12-0.1L240.12-0.1 240.12-0.3Q237.67-1.65 237.67-4.2L237.67-4.2Q237.67-7.2 241.52-8.75L241.52-8.75Q239.72-10.05 238.85-11.78 237.97-13.5 237.97-16.35L237.97-16.35Q237.97-20.3 240.55-22.43 243.12-24.55 247.47-24.55ZM249.67-14.95Q249.67-16.55 249.3-17.28 248.92-18 247.92-18 246.92-18 246.55-17.28 246.17-16.55 246.17-15.05L246.17-15.05Q246.17-12 247.97-12L247.97-12Q249.67-12 249.67-14.95L249.67-14.95ZM279.67-23.7L279.67 0 271.42 0 271.42-23.7 279.67-23.7ZM272.07-25.6Q271.02-26.5 271.02-28.5 271.02-30.5 272.07-31.45 273.12-32.4 275.52-32.4 277.92-32.4 278.97-31.45 280.02-30.5 280.02-28.53 280.02-26.55 278.97-25.63 277.92-24.7 275.52-24.7 273.12-24.7 272.07-25.6ZM290.96-22.2L291.16-22.2Q293.91-24.55 297.21-24.55 300.51-24.55 301.84-23.03 303.16-21.5 303.16-18.45L303.16-18.45 303.16 0 294.66 0 294.66-15.6Q294.66-16.85 293.56-16.85L293.56-16.85Q292.16-16.85 291.21-16.15L291.21-16.15 291.21 0 282.81 0 282.81-23.95 290.46-23.95 290.96-22.2ZM346.36-31.05L347.41 0 339.56 0 339.56-16.2 339.11-16.2 336.16 0 328.11 0 325.31-16.2 324.81-16.2 324.81 0 317.06 0 318.11-31.05 329.36-31.05 332.16-14.25 332.56-14.25 335.26-31.05 346.36-31.05ZM350.41-12.08Q350.41-18.65 352.93-21.6 355.46-24.55 360.83-24.55 366.21-24.55 368.66-21.65 371.11-18.75 371.11-12.13 371.11-5.5 368.71-2.5 366.31 0.5 360.86 0.5 355.41 0.5 352.91-2.5 350.41-5.5 350.41-12.08ZM362.43-16.8Q362.11-17.8 360.81-17.8 359.51-17.8 359.16-16.8 358.81-15.8 358.81-12.6L358.81-12.6 358.81-11.4Q358.81-7.85 359.16-6.8 359.51-5.75 360.78-5.75 362.06-5.75 362.41-6.8 362.76-7.85 362.76-11.1L362.76-11.1 362.76-12.55Q362.76-15.8 362.43-16.8ZM381.85-22.2L382.05-22.2Q384.8-24.55 388.1-24.55 391.4-24.55 392.73-23.03 394.05-21.5 394.05-18.45L394.05-18.45 394.05 0 385.55 0 385.55-15.6Q385.55-16.85 384.45-16.85L384.45-16.85Q383.05-16.85 382.1-16.15L382.1-16.15 382.1 0 373.7 0 373.7-23.95 381.35-23.95 381.85-22.2ZM410.8-6.6L410.55 0.05Q406.85 0.5 404.13 0.5 401.4 0.5 399.88-0.93 398.35-2.35 398.35-5.85L398.35-5.85 398.35-17.45 395.95-17.45 395.95-23.65 398.75-23.65 399.2-28.25 406.75-28.25 406.75-23.65 411.2-23.65 410.85-17.45 406.7-17.45 406.7-7.5Q406.7-6.45 407.7-6.45L407.7-6.45Q407.8-6.45 410.8-6.6L410.8-6.6ZM422.9-17.4L422.9-17.4Q421.6-17.4 421.2-16.53 420.8-15.65 420.8-13.85L420.8-13.85 425.15-13.85 425.15-15.05Q425.15-17.4 422.9-17.4ZM423.1-24.55L423.1-24.55Q428.25-24.55 430.47-22.08 432.7-19.6 432.7-15L432.7-15Q432.7-14.4 432.35-9.6L432.35-9.6 420.95-9.6Q420.95-5.85 424.4-5.85L424.4-5.85Q426.05-5.85 430.85-7L430.85-7 431.55-0.8Q427.35 0.5 423.15 0.5L423.15 0.5Q418 0.5 415.25-2.88 412.5-6.25 412.5-12.05L412.5-12.05Q412.5-24.55 423.1-24.55ZM435-5.5L435-5.5 435-32.05 443.25-32.05 443.25-8.15Q443.25-7.3 443.62-6.95 444-6.6 444.95-6.6L444.95-6.6 444.3 0.5 441.55 0.5Q438.25 0.5 436.62-0.88 435-2.25 435-5.5ZM446.64-5.5L446.64-5.5 446.64-32.05 454.89-32.05 454.89-8.15Q454.89-7.3 455.27-6.95 455.64-6.6 456.59-6.6L456.59-6.6 455.94 0.5 453.19 0.5Q449.89 0.5 448.27-0.88 446.64-2.25 446.64-5.5ZM457.89-12.08Q457.89-18.65 460.42-21.6 462.94-24.55 468.32-24.55 473.69-24.55 476.14-21.65 478.59-18.75 478.59-12.13 478.59-5.5 476.19-2.5 473.79 0.5 468.34 0.5 462.89 0.5 460.39-2.5 457.89-5.5 457.89-12.08ZM469.92-16.8Q469.59-17.8 468.29-17.8 466.99-17.8 466.64-16.8 466.29-15.8 466.29-12.6L466.29-12.6 466.29-11.4Q466.29-7.85 466.64-6.8 466.99-5.75 468.27-5.75 469.54-5.75 469.89-6.8 470.24-7.85 470.24-11.1L470.24-11.1 470.24-12.55Q470.24-15.8 469.92-16.8ZM499.59-32.4L499.59-32.4Q502.69-32.4 506.09-32.1L506.09-32.1 505.39-24.8Q503.14-25.05 502.11-25.05 501.09-25.05 501.09-24.15L501.09-24.15 501.09-23.25 505.19-23.25 504.79-17.05 501.19-17.05 501.19 0 492.84 0 492.84-17.05 490.64-17.05 490.64-23.25 492.84-23.25 492.84-25.75Q492.84-32.4 499.59-32.4ZM524.38-17.7L524.38-17.7 524.13-7.35Q524.13-6.4 524.61-6.08 525.08-5.75 526.23-5.75L526.23-5.75 525.48 0.3Q522.58 0.5 522.28 0.5L522.28 0.5Q518.58 0.5 517.58-2.05L517.58-2.05 517.33-2.05Q515.48 0.5 511.63 0.5L511.63 0.5Q508.68 0.5 507.11-1.4 505.53-3.3 505.53-6.6L505.53-6.6Q505.53-10.75 508.11-12.35 510.68-13.95 516.23-14.45L516.23-14.45 516.23-15.65Q516.23-17.05 514.83-17.05L514.83-17.05Q512.43-17.05 507.33-15.6L507.33-15.6 506.08-22.9Q512.48-24.55 516.73-24.55 520.98-24.55 522.68-22.9 524.38-21.25 524.38-17.7ZM514.73-5.35L514.73-5.35Q516.58-5.35 516.58-7.3L516.58-7.3 516.58-9.75Q514.73-9.5 513.96-8.97 513.18-8.45 513.18-7.2L513.18-7.2Q513.18-5.35 514.73-5.35ZM547.93-21.75L548.43-22.2Q551.18-24.55 554.48-24.55 557.78-24.55 559.11-23.03 560.43-21.5 560.43-18.45L560.43-18.45 560.43 0 551.93 0 551.93-15.6Q551.93-16.85 550.83-16.85L550.83-16.85Q549.43-16.85 548.48-16.15L548.48-16.15 548.48 0 539.98 0 539.98-15.6Q539.98-16.85 538.88-16.85L538.88-16.85Q537.48-16.85 536.53-16.15L536.53-16.15 536.53 0 528.13 0 528.13-23.95 535.78-23.95 536.28-22.2 536.48-22.2Q539.23-24.55 543-24.55 546.78-24.55 547.93-21.75L547.93-21.75ZM571.88-23.7L571.88 0 563.63 0 563.63-23.7 571.88-23.7ZM564.28-25.6Q563.23-26.5 563.23-28.5 563.23-30.5 564.28-31.45 565.33-32.4 567.73-32.4 570.13-32.4 571.18-31.45 572.23-30.5 572.23-28.53 572.23-26.55 571.18-25.63 570.13-24.7 567.73-24.7 565.33-24.7 564.28-25.6ZM575.02-5.5L575.02-5.5 575.02-32.05 583.27-32.05 583.27-8.15Q583.27-7.3 583.65-6.95 584.02-6.6 584.97-6.6L584.97-6.6 584.32 0.5 581.57 0.5Q578.27 0.5 576.65-0.88 575.02-2.25 575.02-5.5ZM599.22-23.95L607.42-23.95 601.22 0.7Q600.27 4.4 598.42 5.88 596.57 7.35 592.37 7.35L592.37 7.35 587.37 7.35 586.62 0.9 589.42 0.9Q591.12 0.9 591.12-0.45L591.12-0.45Q591.12-0.75 590.92-1.75L590.92-1.75 585.17-23.95 594.07-23.95 596.32-9 596.77-9 599.22-23.95Z" opacity="1" transform="matrix(1,0,0,1,0,0)" fill="#ff9966" class="undefined-text-1" data-fill-palette-color="secondary" id="text-1"></path></svg></g></svg></g></svg></g></svg></g></svg></g><defs></defs></svg><rect width="395.52" height="67.75105037671342" fill="none" stroke="none" visibility="hidden"></rect></g></svg></g></svg>